<svg width="17" height="16" viewBox="0 0 17 16" fill="none" xmlns="http://www.w3.org/2000/svg">
<path fill-rule="evenodd" clip-rule="evenodd" d="M12.5 4C12.5 6.21 10.71 8 8.5 8C6.29 8 4.5 6.21 4.5 4C4.5 1.79 6.29 0 8.5 0C10.71 0 12.5 1.79 12.5 4ZM10.5 4C10.5 2.9 9.6 2 8.5 2C7.4 2 6.5 2.9 6.5 4C6.5 5.1 7.4 6 8.5 6C9.6 6 10.5 5.1 10.5 4ZM8.5 9C5.83 9 0.5 10.34 0.5 13V15C0.5 15.55 0.95 16 1.5 16H15.5C16.05 16 16.5 15.55 16.5 15V13C16.5 10.34 11.17 9 8.5 9ZM2.5 13.01V14H14.5V13C14.3 12.29 11.2 11 8.5 11C5.8 11 2.7 12.29 2.5 13.01Z" fill="black" fill-opacity="0.54"/>
</svg>
