<svg width="19" height="18" viewBox="0 0 19 18" fill="none" xmlns="http://www.w3.org/2000/svg">
<path d="M10.0526 0.189625C9.89461 0.0667254 9.70016 0 9.5 0C9.29984 0 9.10539 0.0667254 8.9474 0.189625L1.5422 5.94962C1.21744 6.20225 0.95472 6.52576 0.774093 6.89543C0.593466 7.26511 0.499715 7.67118 0.500001 8.08262V16.2006C0.500001 16.678 0.689643 17.1359 1.02721 17.4734C1.36477 17.811 1.82261 18.0006 2.3 18.0006H5.9C6.37739 18.0006 6.83523 17.811 7.17279 17.4734C7.51036 17.1359 7.7 16.678 7.7 16.2006V10.8006H11.3V16.2006C11.3 16.678 11.4896 17.1359 11.8272 17.4734C12.1648 17.811 12.6226 18.0006 13.1 18.0006H16.7C17.1774 18.0006 17.6352 17.811 17.9728 17.4734C18.3104 17.1359 18.5 16.678 18.5 16.2006V8.08262C18.5001 7.67103 18.406 7.26487 18.2251 6.89518C18.0442 6.52549 17.7811 6.20207 17.456 5.94962L10.0526 0.189625Z" fill="black"/>
</svg>
